<!DOCTYPE svg PUBLIC "-//W3C//DTD SVG 20010904//EN" "http://www.w3.org/TR/2001/REC-SVG-20010904/DTD/svg10.dtd">
<svg version="1.0" xmlns="http://www.w3.org/2000/svg" width="100px" height="100px" viewBox="0 0 1000 1000" preserveAspectRatio="xMidYMid meet">
<g id="layer101" stroke="none">
 <path d="M240 911 c-51 -16 -90 -42 -105 -71 -12 -23 -15 -68 -15 -215 0 -213 5 -232 73 -267 49 -25 178 -37 225 -20 l30 10 4 -88 c3 -82 5 -91 32 -119 86 -89 331 -77 381 19 12 24 15 77 15 303 0 263 -1 275 -21 301 -46 59 -159 88 -258 67 l-52 -11 -30 35 c-21 23 -48 40 -82 50 -53 16 -154 19 -197 6z m183 -102 c19 -9 27 -20 27 -39 l0 -26 -89 4 c-50 2 -103 0 -120 -6 -30 -11 -31 -10 -31 17 0 16 7 34 15 41 36 30 141 35 198 9z m332 -83 c29 -12 35 -20 35 -45 0 -29 -1 -29 -32 -20 -43 12 -150 12 -183 -1 -25 -10 -26 -9 -23 22 2 23 11 36 28 45 34 17 133 16 175 -1z m-340 -80 c29 -12 35 -20 35 -45 0 -29 -1 -30 -32 -23 -42 9 -134 9 -176 0 -32 -7 -33 -7 -30 20 6 54 123 81 203 48z m352 -92 c15 -9 23 -24 23 -44 0 -28 -1 -29 -31 -18 -17 6 -70 8 -120 6 l-89 -4 0 28 c0 15 1 28 3 28 1 0 20 7 42 15 47 18 138 12 172 -11z m-17 -162 c25 -12 36 -25 38 -44 3 -27 2 -27 -30 -20 -42 9 -134 9 -175 0 -32 -7 -33 -6 -33 23 0 24 6 33 33 44 45 20 125 18 167 -3z"/>
 </g>

</svg>