<!DOCTYPE svg PUBLIC "-//W3C//DTD SVG 20010904//EN" "http://www.w3.org/TR/2001/REC-SVG-20010904/DTD/svg10.dtd">
<svg version="1.0" xmlns="http://www.w3.org/2000/svg" width="100px" height="100px" viewBox="0 0 1000 1000" preserveAspectRatio="xMidYMid meet">
<g id="layer101" stroke="none">
 <path d="M80 670 c0 -205 -1 -210 -19 -200 -11 5 -29 10 -40 10 -31 0 -27 -29 18 -118 37 -73 46 -83 146 -160 90 -68 114 -82 144 -82 28 0 44 -7 66 -30 32 -34 50 -37 76 -14 16 14 20 13 57 -20 22 -20 46 -36 54 -36 7 0 36 23 63 50 l49 50 92 0 93 0 60 100 c34 56 61 109 61 118 0 10 -27 44 -60 77 l-60 59 0 102 0 101 -81 102 -81 101 -319 0 -319 0 0 -210z m600 -90 l0 -260 -280 0 -280 0 0 260 0 260 280 0 280 0 0 -260z m160 1 c0 -54 -2 -61 -19 -61 -14 0 -33 -21 -60 -67 l-41 -68 0 204 0 204 60 -76 c59 -73 60 -76 60 -136z m61 -322 l-46 -78 -61 61 -62 60 47 79 46 78 61 -61 62 -60 -47 -79z m-643 -22 c60 -61 52 -66 -18 -11 -33 26 -60 49 -60 50 0 2 8 4 18 4 10 0 37 -19 60 -43z m257 -32 c-37 -41 -70 -75 -74 -75 -4 0 -40 34 -81 75 l-74 75 148 0 148 0 -67 -75z m192 53 l24 -22 -73 -73 c-40 -40 -77 -73 -82 -73 -5 0 -20 10 -32 21 l-23 22 66 73 c36 41 72 74 81 74 9 0 26 -10 39 -22z m78 -78 c18 -20 17 -20 -20 -20 -37 0 -38 0 -20 20 10 11 19 20 20 20 1 0 10 -9 20 -20z"/>
 <path d="M275 430 c-15 -24 12 -30 126 -30 112 0 119 1 119 20 0 19 -7 20 -119 20 -69 0 -122 -4 -126 -10z"/>
 </g>

</svg>