<!DOCTYPE svg PUBLIC "-//W3C//DTD SVG 20010904//EN" "http://www.w3.org/TR/2001/REC-SVG-20010904/DTD/svg10.dtd">
<svg version="1.0" xmlns="http://www.w3.org/2000/svg" width="100px" height="100px" viewBox="0 0 1000 1000" preserveAspectRatio="xMidYMid meet">
<g id="layer101" stroke="none">
 <path d="M98 829 c-16 -9 -18 -32 -18 -242 0 -168 3 -236 12 -245 17 -17 799 -17 816 0 9 9 12 77 12 245 0 219 -1 233 -19 243 -27 14 -779 13 -803 -1z m708 -105 c22 -23 24 -33 24 -141 0 -175 24 -163 -329 -163 -355 0 -331 -12 -331 161 0 107 2 119 23 143 l22 26 284 0 284 0 23 -26z"/>
 <path d="M416 679 c-91 -80 -37 -223 84 -223 121 0 175 143 84 223 -29 26 -43 31 -84 31 -41 0 -55 -5 -84 -31z"/>
 <path d="M261 616 c-7 -8 -11 -27 -9 -43 3 -25 7 -28 37 -28 43 0 60 23 43 59 -13 29 -52 35 -71 12z"/>
 <path d="M668 604 c-17 -36 0 -59 43 -59 30 0 34 3 37 28 7 57 -57 81 -80 31z"/>
 <path d="M165 245 c50 -19 642 -165 658 -163 22 3 44 51 62 136 l7 32 -51 0 c-38 0 -51 -4 -51 -15 0 -8 -12 -21 -27 -28 -24 -13 -37 -12 -132 14 -99 27 -117 29 -291 28 -102 0 -180 -2 -175 -4z"/>
 </g>

</svg>