<!DOCTYPE svg PUBLIC "-//W3C//DTD SVG 20010904//EN" "http://www.w3.org/TR/2001/REC-SVG-20010904/DTD/svg10.dtd">
<svg version="1.0" xmlns="http://www.w3.org/2000/svg" width="100px" height="100px" viewBox="0 0 1000 1000" preserveAspectRatio="xMidYMid meet">
<g id="layer101" stroke="none">
 <path d="M80 835 l0 -45 420 0 420 0 0 45 0 45 -420 0 -420 0 0 -45z"/>
 <path d="M80 705 l0 -45 420 0 420 0 0 45 0 45 -420 0 -420 0 0 -45z"/>
 <path d="M92 618 c-17 -17 -17 -469 0 -486 17 -17 799 -17 816 0 17 17 17 469 0 486 -17 17 -799 17 -816 0z m716 -102 c20 -22 22 -33 22 -141 0 -108 -2 -119 -22 -141 l-23 -24 -285 0 -285 0 -22 24 c-21 22 -23 33 -23 141 0 108 2 119 23 141 l22 24 285 0 285 0 23 -24z"/>
 <path d="M428 482 c-75 -46 -74 -170 1 -215 63 -37 156 -13 186 49 29 62 10 135 -44 167 -37 22 -108 21 -143 -1z"/>
 <path d="M262 411 c-8 -5 -12 -22 -10 -42 3 -29 7 -34 31 -37 34 -4 57 13 57 42 0 39 -43 60 -78 37z"/>
 <path d="M670 406 c-15 -19 -9 -56 11 -69 9 -5 28 -7 42 -3 23 5 27 12 27 40 0 34 -13 46 -50 46 -9 0 -23 -7 -30 -14z"/>
 </g>

</svg>