<svg id="info" width="24" height="24" viewBox="0 0 24 24" fill="none" xmlns="http://www.w3.org/2000/svg">
<path fill-rule="evenodd" clip-rule="evenodd" d="M1.04907e-06 12C1.62846e-06 5.37258 5.37259 -1.62846e-06 12 -1.04907e-06C18.6274 -4.69686e-07 24 5.37258 24 12C24 18.6274 18.6274 24 12 24C5.37258 24 4.69686e-07 18.6274 1.04907e-06 12ZM12 9C12.5523 9 13 8.55228 13 8C13 7.44771 12.5523 7 12 7C11.4477 7 11 7.44771 11 8C11 8.55228 11.4477 9 12 9ZM11 17L13 17L13 10L11 10L11 17Z" fill="#A0A4A8"/>
</svg>
