<svg id="Catalogue" xmlns="http://www.w3.org/2000/svg" width="24" height="24" viewBox="0 0 24 24">
  <rect id="Rectangle_864" data-name="Rectangle 864" width="24" height="24" fill="none"/>
  <path id="Path_1433" data-name="Path 1433" d="M10.8,2.9l-6,4.5A2,2,0,0,0,4,9v9a2,2,0,0,0,2,2H18a2,2,0,0,0,2-2V9a2,2,0,0,0-.8-1.6l-6-4.5a2,2,0,0,0-2.4,0ZM10,19H8a1,1,0,0,1-1-1V16a1,1,0,0,1,1-1h2a1,1,0,0,1,1,1v2A1,1,0,0,1,10,19Zm0-6H8a1,1,0,0,1-1-1V10A1,1,0,0,1,8,9h2a1,1,0,0,1,1,1v2A1,1,0,0,1,10,13Zm6,6H14a1,1,0,0,1-1-1V16a1,1,0,0,1,1-1h2a1,1,0,0,1,1,1v2A1,1,0,0,1,16,19Z" transform="translate(0 0.5)" fill="#cacccf"/>
</svg>
