<svg id="logistics" xmlns="http://www.w3.org/2000/svg" width="24" height="24" viewBox="0 0 24 24">
  <g id="Group_2178" data-name="Group 2178" transform="translate(-0.599 0.55)">
    <path id="Path_1448" data-name="Path 1448" d="M13.885,47.513a.386.386,0,0,0,.385-.385v-1.04a.641.641,0,0,1,.635-.635h5.236v1.675a.385.385,0,0,0,.77,0V45.453h5.256a.641.641,0,0,1,.635.635v1.04a.385.385,0,0,0,.77,0v-1.04A1.38,1.38,0,0,0,26.187,44.7H20.912V43.085a.385.385,0,0,0-.77,0V44.7H14.886A1.38,1.38,0,0,0,13.5,46.088v1.04A.386.386,0,0,0,13.885,47.513Z" transform="translate(-7.994 -32.501)" fill="#cacccf"/>
    <path id="Path_1449" data-name="Path 1449" d="M3.677,79.468c-.039-.019-.077,0-.077.039v2.522a.041.041,0,0,0,.039.039l1.867.847c.039.019.077,0,.077-.039v-2.5a.041.041,0,0,0-.039-.039Z" transform="translate(0 -62.185)" fill="#cacccf"/>
    <path id="Path_1450" data-name="Path 1450" d="M9.537,72.928,7.727,72.1H7.689l-1.81.828a.055.055,0,0,0,0,.1l1.81.828h.039l1.81-.828A.055.055,0,0,0,9.537,72.928Z" transform="translate(-1.817 -56.241)" fill="#cacccf"/>
    <path id="Path_1451" data-name="Path 1451" d="M18.906,79.468l-1.867.847a.041.041,0,0,0-.039.038v2.522c0,.039.039.058.077.039l1.867-.847a.041.041,0,0,0,.039-.039V79.507C18.983,79.468,18.944,79.449,18.906,79.468Z" transform="translate(-10.82 -62.185)" fill="#cacccf"/>
    <path id="Path_1452" data-name="Path 1452" d="M38.277,79.468c-.039-.019-.077,0-.077.039v2.522a.041.041,0,0,0,.039.039l1.867.847c.039.019.077,0,.077-.039v-2.5a.041.041,0,0,0-.039-.039Z" transform="translate(-27.939 -62.185)" fill="#cacccf"/>
    <path id="Path_1453" data-name="Path 1453" d="M44.137,72.928l-1.81-.828h-.038l-1.81.828a.055.055,0,0,0,0,.1l1.81.828h.039l1.81-.828A.055.055,0,0,0,44.137,72.928Z" transform="translate(-29.756 -56.241)" fill="#cacccf"/>
    <path id="Path_1454" data-name="Path 1454" d="M53.406,79.468l-1.867.847a.041.041,0,0,0-.039.038v2.522c0,.039.039.058.077.039l1.867-.847a.041.041,0,0,0,.039-.039V79.507C53.483,79.468,53.444,79.449,53.406,79.468Z" transform="translate(-38.678 -62.185)" fill="#cacccf"/>
    <path id="Path_1455" data-name="Path 1455" d="M72.777,79.468c-.038-.019-.077,0-.077.039v2.522a.041.041,0,0,0,.038.039l1.867.847c.039.019.077,0,.077-.039v-2.5a.041.041,0,0,0-.038-.039Z" transform="translate(-55.797 -62.185)" fill="#cacccf"/>
    <path id="Path_1456" data-name="Path 1456" d="M78.556,72.928l-1.81-.828h-.038l-1.829.828a.055.055,0,0,0,0,.1l1.81.828h.038l1.81-.828C78.594,73,78.594,72.947,78.556,72.928Z" transform="translate(-57.533 -56.241)" fill="#cacccf"/>
    <path id="Path_1457" data-name="Path 1457" d="M88.006,79.468l-1.867.847a.041.041,0,0,0-.038.038v2.522c0,.039.038.058.077.039l1.867-.847a.041.041,0,0,0,.038-.039V79.507C88.083,79.468,88.044,79.449,88.006,79.468Z" transform="translate(-66.617 -62.185)" fill="#cacccf"/>
    <path id="Path_1458" data-name="Path 1458" d="M30.754,9.275h.963a.152.152,0,0,0,.154-.154V5.444a.3.3,0,0,1,.308-.308h4.293a.3.3,0,0,1,.308.308V9.121a.152.152,0,0,0,.154.154H37.9a.152.152,0,0,0,.154-.154V4.327a.337.337,0,0,0-.193-.289L34.47,2.479a.286.286,0,0,0-.25,0L30.793,4.038a.315.315,0,0,0-.193.289V9.121A.142.142,0,0,0,30.754,9.275Z" transform="translate(-21.802)" fill="#cacccf"/>
    <path id="Path_1459" data-name="Path 1459" d="M40.547,32.7h-.693a.152.152,0,0,0-.154.154v.693a.152.152,0,0,0,.154.154h.693a.152.152,0,0,0,.154-.154v-.693A.142.142,0,0,0,40.547,32.7Z" transform="translate(-29.15 -24.426)" fill="#cacccf"/>
    <path id="Path_1460" data-name="Path 1460" d="M48.247,32.7h-.693a.152.152,0,0,0-.154.154v.693a.152.152,0,0,0,.154.154h.693a.152.152,0,0,0,.154-.154v-.693A.142.142,0,0,0,48.247,32.7Z" transform="translate(-35.368 -24.426)" fill="#cacccf"/>
    <path id="Path_1461" data-name="Path 1461" d="M40.7,25.954a.152.152,0,0,0-.154-.154h-.693a.152.152,0,0,0-.154.154v.693a.152.152,0,0,0,.154.154h.693a.152.152,0,0,0,.154-.154Z" transform="translate(-29.15 -18.855)" fill="#cacccf"/>
    <path id="Path_1462" data-name="Path 1462" d="M48.4,25.954a.152.152,0,0,0-.154-.154h-.693a.152.152,0,0,0-.154.154v.693a.152.152,0,0,0,.154.154h.693a.152.152,0,0,0,.154-.154Z" transform="translate(-35.368 -18.855)" fill="#cacccf"/>
    <path id="Path_1463" data-name="Path 1463" d="M40.7,19.054a.152.152,0,0,0-.154-.154h-.693a.152.152,0,0,0-.154.154v.693a.152.152,0,0,0,.154.154h.693a.152.152,0,0,0,.154-.154Z" transform="translate(-29.15 -13.283)" fill="#cacccf"/>
    <path id="Path_1464" data-name="Path 1464" d="M48.4,19.054a.152.152,0,0,0-.154-.154h-.693a.152.152,0,0,0-.154.154v.693a.152.152,0,0,0,.154.154h.693a.152.152,0,0,0,.154-.154Z" transform="translate(-35.368 -13.283)" fill="#cacccf"/>
    <path id="Path_1465" data-name="Path 1465" d="M55.947,32.7h-.693a.152.152,0,0,0-.154.154v.693a.152.152,0,0,0,.154.154h.693a.152.152,0,0,0,.154-.154v-.693C56.12,32.758,56.043,32.7,55.947,32.7Z" transform="translate(-41.585 -24.426)" fill="#cacccf"/>
    <path id="Path_1466" data-name="Path 1466" d="M56.2,25.954a.152.152,0,0,0-.154-.154h-.693a.152.152,0,0,0-.154.154v.693a.152.152,0,0,0,.154.154h.693a.152.152,0,0,0,.154-.154Z" transform="translate(-41.666 -18.855)" fill="#cacccf"/>
  </g>
  <path id="Path_1467" data-name="Path 1467" d="M0,0H24V24H0Z" fill="none"/>
</svg>
