<svg id="insert_chart-24px" xmlns="http://www.w3.org/2000/svg" width="24" height="24" viewBox="0 0 24 24">
  <path id="Path_1434" data-name="Path 1434" d="M0,0H24V24H0Z" fill="none"/>
  <path id="Path_1435" data-name="Path 1435" d="M19,3H5A2.006,2.006,0,0,0,3,5V19a2.006,2.006,0,0,0,2,2H19a2.006,2.006,0,0,0,2-2V5A2.006,2.006,0,0,0,19,3ZM8,17a1,1,0,0,1-1-1V11a1,1,0,0,1,2,0v5A1,1,0,0,1,8,17Zm4,0a1,1,0,0,1-1-1V8a1,1,0,0,1,2,0v8A1,1,0,0,1,12,17Zm4,0a1,1,0,0,1-1-1V14a1,1,0,0,1,2,0v2A1,1,0,0,1,16,17Z" fill="#cacccf"/>
</svg>
