<svg id="storefront-24px" xmlns="http://www.w3.org/2000/svg" width="24" height="24" viewBox="0 0 24 24">
  <g id="Bounding_Box">
    <rect id="Rectangle_836" data-name="Rectangle 836" width="24" height="24" fill="none"/>
    <rect id="Rectangle_837" data-name="Rectangle 837" width="24" height="24" fill="none"/>
  </g>
  <g id="Flat">
    <g id="Group_2087" data-name="Group 2087">
      <path id="Path_1395" data-name="Path 1395" d="M21.9,8.89,20.85,4.52A1.964,1.964,0,0,0,18.94,3H5.05a1.964,1.964,0,0,0-1.9,1.52L2.1,8.89a3.375,3.375,0,0,0,.62,2.88,3.834,3.834,0,0,0,.28.29V19a2.006,2.006,0,0,0,2,2H19a2.006,2.006,0,0,0,2-2V12.06a3.7,3.7,0,0,0,.28-.28A3.364,3.364,0,0,0,21.9,8.89ZM7.02,5,6.44,9.86A1.257,1.257,0,0,1,5.23,11a1.151,1.151,0,0,1-.93-.47,1.363,1.363,0,0,1-.25-1.17L5.05,5Zm11.89-.01,1.05,4.37a1.356,1.356,0,0,1-.25,1.17,1.173,1.173,0,0,1-.94.47,1.25,1.25,0,0,1-1.21-1.14L16.98,5Zm-3.4,4.53a1.344,1.344,0,0,1-.33,1.07,1.228,1.228,0,0,1-.96.41A1.272,1.272,0,0,1,13,9.69V5h1.96ZM11,9.69A1.285,1.285,0,0,1,9.71,11a1.2,1.2,0,0,1-.89-.41,1.421,1.421,0,0,1-.33-1.07L9.04,5H11ZM18,19H6a1,1,0,0,1-1-1V12.97a1.81,1.81,0,0,0,.23.03,3.129,3.129,0,0,0,2.24-.95A3.216,3.216,0,0,0,9.78,13a3.17,3.17,0,0,0,2.23-.93A3.278,3.278,0,0,0,14.3,13a3.175,3.175,0,0,0,2.24-.95,3.129,3.129,0,0,0,2.24.95,1.81,1.81,0,0,0,.23-.03V18A1.018,1.018,0,0,1,18,19Z" fill="#cacccf"/>
    </g>
  </g>
</svg>
