<svg
  width="160"
  height="48"
  viewBox="0 0 160 48"
  fill="none"
  xmlns="http://www.w3.org/2000/svg"
>
  <path
    d="M23.0449 47.9786C35.6722 47.7556 45.8563 37.1499 46.0704 24H23.0449V47.9786Z"
    fill="#8F1921"
  />
  <path
    d="M0.0205078 23.9996H23.0467V0.0209961C10.4187 0.243995 0.235311 10.8497 0.0205078 23.9996Z"
    fill="#F37E90"
  />
  <path
    d="M45.6448 0.310805C45.4299 0.114673 45.155 0.00450918 44.8693 0H23.4464C23.3126 0 23.1788 0.0188174 23.0449 0.0216049V23.9786L45.6448 0.310805Z"
    fill="#D13F49"
  />
  <path
    d="M45.6441 0.310547L23.0449 23.9783V23.9999H46.0704C46.0704 23.8606 46.0905 23.7212 46.0905 23.5818V1.27292C46.0887 1.08818 46.0478 0.90612 45.9707 0.739755C45.8935 0.573391 45.782 0.426829 45.6441 0.310547Z"
    fill="#BF202F"
  />
  <path
    d="M0.443359 47.6893C0.658292 47.8854 0.933187 47.9956 1.21893 48.0001H22.6418C22.7756 48.0001 22.9094 47.9813 23.0433 47.9785V24.0215L0.443359 47.6893Z"
    fill="#BF202F"
  />
  <path
    d="M0.446336 47.6894L23.0462 24.0216V24H0.0200753C0.0200753 24.1394 0 24.2787 0 24.4181V46.727C0.00174973 46.9118 0.0426654 47.0938 0.119823 47.2602C0.19698 47.4266 0.308475 47.5731 0.446336 47.6894Z"
    fill="#D13F49"
  />
  <path
    d="M8.40123 24.89C8.40123 24.89 8.63678 24.5514 9.0162 24.5514C9.39562 24.5514 8.85359 26.3967 8.85359 26.3967C8.85359 26.3967 8.00374 29.5779 8.05795 30.6699C8.11215 31.7619 8.02181 33.2866 9.32335 35.0379C10.6249 36.7891 13.4789 38.6539 19.2164 38.7801C24.9538 38.9062 30.3246 35.4609 32.6667 32.7737C35.0088 30.0866 35.8238 26.1346 33.2736 23.3527C30.7234 20.5708 22.7677 21.3611 19.9772 19.7172C17.1868 18.0733 16.9987 16.1109 18.394 11.2558C19.7892 6.40069 24.7464 3.48777 30.866 2.09194C36.9855 0.696108 38.4028 1.63479 38.7575 2.51006C39.1121 3.38533 39.3377 5.76584 37.8876 7.91359C37.8876 7.91359 37.1033 9.10245 35.9818 8.57492C34.8602 8.04739 33.2997 6.09337 27.3528 7.94774C21.4059 9.80211 20.4182 12.3046 20.4182 12.3046C20.4182 12.3046 19.9444 13.6007 21.8235 14.4649C23.7025 15.329 31.0299 14.876 33.914 17.0161C36.7982 19.1562 37.7283 21.2134 37.5884 25.9451C37.4486 30.6768 34.5584 35.5473 31.2173 38.9905C27.8761 42.4337 20.2047 46.7543 10.5606 42.6463C0.916558 38.5382 6.33148 28.5507 6.33148 28.5507C6.33148 28.5507 7.7073 25.589 8.40123 24.89Z"
    fill="white"
  />
  <path
    d="M34.0252 17.0329C33.2416 16.4683 32.1351 16.0885 30.9016 15.8135L25.8008 21.0055C28.7973 21.3729 31.9236 21.8187 33.3665 23.3471C35.9839 26.1191 35.1426 30.0571 32.7429 32.7347C30.3433 35.4123 24.8297 38.8455 18.9383 38.7198C14.8492 38.6323 12.2077 37.7039 10.5182 36.5671L6.69141 40.4634C7.54097 41.2551 8.61993 41.9807 10.0567 42.5751C19.9548 46.6721 27.8262 42.3668 31.2553 38.9323C34.6845 35.4978 37.6528 30.648 37.7943 25.933C37.9358 21.218 36.9853 19.1674 34.0252 17.0329Z"
    fill="#E9E8E8"
  />
  <path
    d="M49.7627 31.6893C49.7627 31.6893 49.2381 26.4356 49.8711 22.7826C49.8711 22.7826 50.0792 20.1345 50.1702 19.1435C50.2612 18.1526 50.6667 16.4411 52.2828 16.6446C53.8988 16.8481 56.7455 18.2299 56.3085 20.7944C55.8715 23.3589 55.1562 26.0865 54.9287 28.3053C54.7012 30.5241 54.4603 32.6879 54.6322 34.9067C54.8042 37.1256 53.846 37.3618 53.3046 37.4155C52.7632 37.4691 50.4988 36.6008 49.7627 31.6893Z"
    fill="#404040"
  />
  <path
    d="M52.849 14.6831C52.849 14.6831 51.5963 14.8316 51.1526 13.3291C50.709 11.8267 50.4834 9.92839 51.8024 9.18552C53.1213 8.44266 55.3858 9.31723 55.8455 10.3082C56.3052 11.2991 56.4638 12.4378 55.084 13.6267C55.084 13.6267 53.828 14.6629 52.849 14.6831Z"
    fill="#404040"
  />
  <path
    d="M63.0325 37.4167C63.0325 37.4167 59.6378 37.8962 58.4253 34.2641C57.2127 30.632 58.7806 22.0215 58.9466 20.6389C59.1125 19.2563 58.0766 16.027 59.4765 15.7901C60.8764 15.5531 64.9483 16.0347 64.8239 19.8159C64.8239 19.8159 64.5776 23.3121 64.1754 25.5943C63.7733 27.8766 63.7124 30.7052 64.316 30.0543C64.9196 29.4034 68.3578 22.903 72.2189 19.8563C76.08 16.8096 81.2072 15.6751 82.4438 19.1964C83.6804 22.7177 81.7198 25.9498 82.2926 30.7554C82.8654 35.561 83.8578 37.0481 83.0996 37.4363C82.3414 37.8244 77.8801 37.2154 76.43 30.7428C74.9799 24.2703 76.523 22.5671 75.4483 22.1051C74.3736 21.6431 72.077 23.7233 69.8473 27.4383C67.6177 31.1533 67.2215 32.0564 66.903 32.7017C66.5845 33.347 65.3659 37.1547 63.0325 37.4167Z"
    fill="#404040"
  />
  <path
    d="M89.0384 33.602C89.0384 33.602 85.1612 34.8411 85.4035 29.5414C85.4035 29.5414 85.8237 25.5344 86.7525 22.3762C87.6813 19.2179 87.7964 9.61089 87.3775 7.15512C86.9586 4.69935 86.2614 3.21989 88.3813 3.11327C90.5012 3.00665 93.1183 4.49238 93.1625 7.4032C93.2067 10.314 92.8855 14.7475 92.4632 17.25C92.041 19.7524 92.2979 20.9183 92.6466 20.8228C92.9952 20.7274 96.9962 16.751 101.735 17.5169C106.474 18.2827 108.356 21.3169 108.561 25.0556C108.766 28.7943 107.525 36.3393 96.2554 38.0174C96.2554 38.0174 89.0116 38.5798 87.7569 35.8069C87.7569 35.8069 87.5107 34.8362 89.7645 34.6738C92.0182 34.5114 98.9635 33.7463 102.156 31.3484C105.349 28.9504 106.288 24.6884 102.223 22.5413C98.1579 20.3943 94.9164 22.1309 93.4917 23.2988C92.0671 24.4668 91.2112 26.949 91.0526 29.2745C90.894 31.5999 90.3453 33.2348 89.0384 33.602Z"
    fill="#404040"
  />
  <path
    d="M136.97 32.7475C136.97 32.7475 135.498 27.9803 135.088 26.8074C134.678 25.6346 133.468 23.4332 131.274 23.8625C129.08 24.2917 128.364 24.4625 125.206 26.9217C122.048 29.381 118.863 33.2988 115.376 31.9259C111.889 30.5531 117.407 23.576 122.35 21.7175C127.292 19.8589 128.364 19.7446 130.066 20.1447C131.768 20.5447 132.482 20.0875 132.482 19.5175C132.482 18.9474 131.603 16.1725 127.402 15.8861C123.201 15.5997 118.726 18.2018 117.023 19.6603C115.321 21.1189 111.559 24.1496 110.269 27.8095C108.978 31.4695 112.624 35.6981 112.624 35.6981C112.624 35.6981 115.927 39.9866 121.89 36.0995C121.89 36.0995 125.277 33.9071 126.931 31.282C128.584 28.6569 129.942 28.2046 130.344 29.3343C130.745 30.4639 133.027 36.1371 137.337 37.2946C137.337 37.2946 138.377 37.7476 138.837 37.2103C139.296 36.673 137.428 34.2214 136.97 32.7475Z"
    fill="#404040"
  />
  <path
    d="M147.353 20.0146C147.353 20.0146 148.287 19.6355 148.382 20.1463C148.477 20.6572 147.654 20.7038 147.259 21.1345C146.863 21.5652 144.927 23.0969 144.515 25.7387C144.104 28.3806 144.649 31.5618 147.079 33.5221C149.51 35.4824 152.262 33.8343 153.135 31.5618C154.007 29.2893 154.226 24.2614 152.589 20.0857C150.953 15.9101 148.675 11.7414 144.767 9.01594C140.86 6.29048 140.789 6.887 140.566 6.12602C140.344 5.36504 142.646 5.56504 143.526 5.75877C144.405 5.9525 153.898 7.96158 158.297 16.7205C162.697 25.4795 157.448 31.7764 155.134 34.3932C152.819 37.0099 148.42 38.4169 144.215 37.2503C140.009 36.0838 138.351 32.7499 138.467 28.9332C138.582 25.1164 143.582 21.3401 147.353 20.0146Z"
    fill="#404040"
  />
</svg>
